<svg height="526" width="720" xmlns="http://www.w3.org/2000/svg">
<rect height="526" fill="#555" width="720"></rect>
<text fill="#7f7" font-family="Courier New" font-size="12" xml:space="preserve">
<tspan x="10" y="26">3 megabytes installed</tspan>
<tspan x="10" y="42"></tspan>
<tspan x="10" y="58">node_modules</tspan>
<tspan x="10" y="74">└─┬ multer@1.3.0 </tspan>
<tspan x="10" y="90">  ├── append-field@0.1.0 </tspan>
<tspan x="10" y="106">  ├─┬ busboy@0.2.14 </tspan>
<tspan x="10" y="122">  │ ├─┬ dicer@0.2.5 </tspan>
<tspan x="10" y="138">  │ │ └── streamsearch@0.1.2 </tspan>
<tspan x="10" y="154">  │ └─┬ readable-stream@1.1.14 </tspan>
<tspan x="10" y="170">  │   ├── core-util-is@1.0.2 </tspan>
<tspan x="10" y="186">  │   ├── isarray@0.0.1 </tspan>
<tspan x="10" y="202">  │   └── string_decoder@0.10.31 </tspan>
<tspan x="10" y="218">  ├─┬ concat-stream@1.6.0 </tspan>
<tspan x="10" y="234">  │ ├── inherits@2.0.3 </tspan>
<tspan x="10" y="250">  │ ├─┬ readable-stream@2.2.9 </tspan>
<tspan x="10" y="266">  │ │ ├── buffer-shims@1.0.0 </tspan>
<tspan x="10" y="282">  │ │ ├── isarray@1.0.0 </tspan>
<tspan x="10" y="298">  │ │ ├── process-nextick-args@1.0.7 </tspan>
<tspan x="10" y="314">  │ │ ├── string_decoder@1.0.0 </tspan>
<tspan x="10" y="330">  │ │ └── util-deprecate@1.0.2 </tspan>
<tspan x="10" y="346">  │ └── typedarray@0.0.6 </tspan>
<tspan x="10" y="362">  ├─┬ mkdirp@0.5.1 </tspan>
<tspan x="10" y="378">  │ └── minimist@0.0.8 </tspan>
<tspan x="10" y="394">  ├── object-assign@3.0.0 </tspan>
<tspan x="10" y="410">  ├─┬ on-finished@2.3.0 </tspan>
<tspan x="10" y="426">  │ └── ee-first@1.1.1 </tspan>
<tspan x="10" y="442">  ├─┬ type-is@1.6.15 </tspan>
<tspan x="10" y="458">  │ ├── media-typer@0.3.0 </tspan>
<tspan x="10" y="474">  │ └─┬ mime-types@2.1.15 </tspan>
<tspan x="10" y="490">  │   └── mime-db@1.27.0 </tspan>
<tspan x="10" y="506">  └── xtend@4.0.1</tspan>
</text>
</svg>
